<svg xmlns="http://www.w3.org/2000/svg" xmlns:xlink="http://www.w3.org/1999/xlink" width="601" height="401" viewBox="0 0 601 401">
  <defs>
    <clipPath id="clip-path">
      <rect width="601" height="401" fill="none"/>
    </clipPath>
  </defs>
  <g id="Repeat_Grid_1" data-name="Repeat Grid 1" clip-path="url(#clip-path)">
    <g transform="translate(-1570 -3739)">
      <text id="_" data-name="+" transform="translate(1570 3753)" fill="#fff" font-size="20" font-family="Rotunda-Regular, Rotunda"><tspan x="0" y="0">+</tspan></text>
    </g>
    <g transform="translate(-1538 -3739)">
      <text id="_2" data-name="+" transform="translate(1570 3753)" fill="#fff" font-size="20" font-family="Rotunda-Regular, Rotunda"><tspan x="0" y="0">+</tspan></text>
    </g>
    <g transform="translate(-1506 -3739)">
      <text id="_3" data-name="+" transform="translate(1570 3753)" fill="#fff" font-size="20" font-family="Rotunda-Regular, Rotunda"><tspan x="0" y="0">+</tspan></text>
    </g>
    <g transform="translate(-1474 -3739)">
      <text id="_4" data-name="+" transform="translate(1570 3753)" fill="#fff" font-size="20" font-family="Rotunda-Regular, Rotunda"><tspan x="0" y="0">+</tspan></text>
    </g>
    <g transform="translate(-1442 -3739)">
      <text id="_5" data-name="+" transform="translate(1570 3753)" fill="#fff" font-size="20" font-family="Rotunda-Regular, Rotunda"><tspan x="0" y="0">+</tspan></text>
    </g>
    <g transform="translate(-1410 -3739)">
      <text id="_6" data-name="+" transform="translate(1570 3753)" fill="#fff" font-size="20" font-family="Rotunda-Regular, Rotunda"><tspan x="0" y="0">+</tspan></text>
    </g>
    <g transform="translate(-1378 -3739)">
      <text id="_7" data-name="+" transform="translate(1570 3753)" fill="#fff" font-size="20" font-family="Rotunda-Regular, Rotunda"><tspan x="0" y="0">+</tspan></text>
    </g>
    <g transform="translate(-1346 -3739)">
      <text id="_8" data-name="+" transform="translate(1570 3753)" fill="#fff" font-size="20" font-family="Rotunda-Regular, Rotunda"><tspan x="0" y="0">+</tspan></text>
    </g>
    <g transform="translate(-1314 -3739)">
      <text id="_9" data-name="+" transform="translate(1570 3753)" fill="#fff" font-size="20" font-family="Rotunda-Regular, Rotunda"><tspan x="0" y="0">+</tspan></text>
    </g>
    <g transform="translate(-1282 -3739)">
      <text id="_10" data-name="+" transform="translate(1570 3753)" fill="#fff" font-size="20" font-family="Rotunda-Regular, Rotunda"><tspan x="0" y="0">+</tspan></text>
    </g>
    <g transform="translate(-1250 -3739)">
      <text id="_11" data-name="+" transform="translate(1570 3753)" fill="#fff" font-size="20" font-family="Rotunda-Regular, Rotunda"><tspan x="0" y="0">+</tspan></text>
    </g>
    <g transform="translate(-1218 -3739)">
      <text id="_12" data-name="+" transform="translate(1570 3753)" fill="#fff" font-size="20" font-family="Rotunda-Regular, Rotunda"><tspan x="0" y="0">+</tspan></text>
    </g>
    <g transform="translate(-1186 -3739)">
      <text id="_13" data-name="+" transform="translate(1570 3753)" fill="#fff" font-size="20" font-family="Rotunda-Regular, Rotunda"><tspan x="0" y="0">+</tspan></text>
    </g>
    <g transform="translate(-1154 -3739)">
      <text id="_14" data-name="+" transform="translate(1570 3753)" fill="#fff" font-size="20" font-family="Rotunda-Regular, Rotunda"><tspan x="0" y="0">+</tspan></text>
    </g>
    <g transform="translate(-1122 -3739)">
      <text id="_15" data-name="+" transform="translate(1570 3753)" fill="#fff" font-size="20" font-family="Rotunda-Regular, Rotunda"><tspan x="0" y="0">+</tspan></text>
    </g>
    <g transform="translate(-1090 -3739)">
      <text id="_16" data-name="+" transform="translate(1570 3753)" fill="#fff" font-size="20" font-family="Rotunda-Regular, Rotunda"><tspan x="0" y="0">+</tspan></text>
    </g>
    <g transform="translate(-1058 -3739)">
      <text id="_17" data-name="+" transform="translate(1570 3753)" fill="#fff" font-size="20" font-family="Rotunda-Regular, Rotunda"><tspan x="0" y="0">+</tspan></text>
    </g>
    <g transform="translate(-1026 -3739)">
      <text id="_18" data-name="+" transform="translate(1570 3753)" fill="#fff" font-size="20" font-family="Rotunda-Regular, Rotunda"><tspan x="0" y="0">+</tspan></text>
    </g>
    <g transform="translate(-994 -3739)">
      <text id="_19" data-name="+" transform="translate(1570 3753)" fill="#fff" font-size="20" font-family="Rotunda-Regular, Rotunda"><tspan x="0" y="0">+</tspan></text>
    </g>
    <g transform="translate(-1570 -3701)">
      <text id="_20" data-name="+" transform="translate(1570 3753)" fill="#fff" font-size="20" font-family="Rotunda-Regular, Rotunda"><tspan x="0" y="0">+</tspan></text>
    </g>
    <g transform="translate(-1538 -3701)">
      <text id="_21" data-name="+" transform="translate(1570 3753)" fill="#fff" font-size="20" font-family="Rotunda-Regular, Rotunda"><tspan x="0" y="0">+</tspan></text>
    </g>
    <g transform="translate(-1506 -3701)">
      <text id="_22" data-name="+" transform="translate(1570 3753)" fill="#fff" font-size="20" font-family="Rotunda-Regular, Rotunda"><tspan x="0" y="0">+</tspan></text>
    </g>
    <g transform="translate(-1474 -3701)">
      <text id="_23" data-name="+" transform="translate(1570 3753)" fill="#fff" font-size="20" font-family="Rotunda-Regular, Rotunda"><tspan x="0" y="0">+</tspan></text>
    </g>
    <g transform="translate(-1442 -3701)">
      <text id="_24" data-name="+" transform="translate(1570 3753)" fill="#fff" font-size="20" font-family="Rotunda-Regular, Rotunda"><tspan x="0" y="0">+</tspan></text>
    </g>
    <g transform="translate(-1410 -3701)">
      <text id="_25" data-name="+" transform="translate(1570 3753)" fill="#fff" font-size="20" font-family="Rotunda-Regular, Rotunda"><tspan x="0" y="0">+</tspan></text>
    </g>
    <g transform="translate(-1378 -3701)">
      <text id="_26" data-name="+" transform="translate(1570 3753)" fill="#fff" font-size="20" font-family="Rotunda-Regular, Rotunda"><tspan x="0" y="0">+</tspan></text>
    </g>
    <g transform="translate(-1346 -3701)">
      <text id="_27" data-name="+" transform="translate(1570 3753)" fill="#fff" font-size="20" font-family="Rotunda-Regular, Rotunda"><tspan x="0" y="0">+</tspan></text>
    </g>
    <g transform="translate(-1314 -3701)">
      <text id="_28" data-name="+" transform="translate(1570 3753)" fill="#fff" font-size="20" font-family="Rotunda-Regular, Rotunda"><tspan x="0" y="0">+</tspan></text>
    </g>
    <g transform="translate(-1282 -3701)">
      <text id="_29" data-name="+" transform="translate(1570 3753)" fill="#fff" font-size="20" font-family="Rotunda-Regular, Rotunda"><tspan x="0" y="0">+</tspan></text>
    </g>
    <g transform="translate(-1250 -3701)">
      <text id="_30" data-name="+" transform="translate(1570 3753)" fill="#fff" font-size="20" font-family="Rotunda-Regular, Rotunda"><tspan x="0" y="0">+</tspan></text>
    </g>
    <g transform="translate(-1218 -3701)">
      <text id="_31" data-name="+" transform="translate(1570 3753)" fill="#fff" font-size="20" font-family="Rotunda-Regular, Rotunda"><tspan x="0" y="0">+</tspan></text>
    </g>
    <g transform="translate(-1186 -3701)">
      <text id="_32" data-name="+" transform="translate(1570 3753)" fill="#fff" font-size="20" font-family="Rotunda-Regular, Rotunda"><tspan x="0" y="0">+</tspan></text>
    </g>
    <g transform="translate(-1154 -3701)">
      <text id="_33" data-name="+" transform="translate(1570 3753)" fill="#fff" font-size="20" font-family="Rotunda-Regular, Rotunda"><tspan x="0" y="0">+</tspan></text>
    </g>
    <g transform="translate(-1122 -3701)">
      <text id="_34" data-name="+" transform="translate(1570 3753)" fill="#fff" font-size="20" font-family="Rotunda-Regular, Rotunda"><tspan x="0" y="0">+</tspan></text>
    </g>
    <g transform="translate(-1090 -3701)">
      <text id="_35" data-name="+" transform="translate(1570 3753)" fill="#fff" font-size="20" font-family="Rotunda-Regular, Rotunda"><tspan x="0" y="0">+</tspan></text>
    </g>
    <g transform="translate(-1058 -3701)">
      <text id="_36" data-name="+" transform="translate(1570 3753)" fill="#fff" font-size="20" font-family="Rotunda-Regular, Rotunda"><tspan x="0" y="0">+</tspan></text>
    </g>
    <g transform="translate(-1026 -3701)">
      <text id="_37" data-name="+" transform="translate(1570 3753)" fill="#fff" font-size="20" font-family="Rotunda-Regular, Rotunda"><tspan x="0" y="0">+</tspan></text>
    </g>
    <g transform="translate(-994 -3701)">
      <text id="_38" data-name="+" transform="translate(1570 3753)" fill="#fff" font-size="20" font-family="Rotunda-Regular, Rotunda"><tspan x="0" y="0">+</tspan></text>
    </g>
    <g transform="translate(-1570 -3663)">
      <text id="_39" data-name="+" transform="translate(1570 3753)" fill="#fff" font-size="20" font-family="Rotunda-Regular, Rotunda"><tspan x="0" y="0">+</tspan></text>
    </g>
    <g transform="translate(-1538 -3663)">
      <text id="_40" data-name="+" transform="translate(1570 3753)" fill="#fff" font-size="20" font-family="Rotunda-Regular, Rotunda"><tspan x="0" y="0">+</tspan></text>
    </g>
    <g transform="translate(-1506 -3663)">
      <text id="_41" data-name="+" transform="translate(1570 3753)" fill="#fff" font-size="20" font-family="Rotunda-Regular, Rotunda"><tspan x="0" y="0">+</tspan></text>
    </g>
    <g transform="translate(-1474 -3663)">
      <text id="_42" data-name="+" transform="translate(1570 3753)" fill="#fff" font-size="20" font-family="Rotunda-Regular, Rotunda"><tspan x="0" y="0">+</tspan></text>
    </g>
    <g transform="translate(-1442 -3663)">
      <text id="_43" data-name="+" transform="translate(1570 3753)" fill="#fff" font-size="20" font-family="Rotunda-Regular, Rotunda"><tspan x="0" y="0">+</tspan></text>
    </g>
    <g transform="translate(-1410 -3663)">
      <text id="_44" data-name="+" transform="translate(1570 3753)" fill="#fff" font-size="20" font-family="Rotunda-Regular, Rotunda"><tspan x="0" y="0">+</tspan></text>
    </g>
    <g transform="translate(-1378 -3663)">
      <text id="_45" data-name="+" transform="translate(1570 3753)" fill="#fff" font-size="20" font-family="Rotunda-Regular, Rotunda"><tspan x="0" y="0">+</tspan></text>
    </g>
    <g transform="translate(-1346 -3663)">
      <text id="_46" data-name="+" transform="translate(1570 3753)" fill="#fff" font-size="20" font-family="Rotunda-Regular, Rotunda"><tspan x="0" y="0">+</tspan></text>
    </g>
    <g transform="translate(-1314 -3663)">
      <text id="_47" data-name="+" transform="translate(1570 3753)" fill="#fff" font-size="20" font-family="Rotunda-Regular, Rotunda"><tspan x="0" y="0">+</tspan></text>
    </g>
    <g transform="translate(-1282 -3663)">
      <text id="_48" data-name="+" transform="translate(1570 3753)" fill="#fff" font-size="20" font-family="Rotunda-Regular, Rotunda"><tspan x="0" y="0">+</tspan></text>
    </g>
    <g transform="translate(-1250 -3663)">
      <text id="_49" data-name="+" transform="translate(1570 3753)" fill="#fff" font-size="20" font-family="Rotunda-Regular, Rotunda"><tspan x="0" y="0">+</tspan></text>
    </g>
    <g transform="translate(-1218 -3663)">
      <text id="_50" data-name="+" transform="translate(1570 3753)" fill="#fff" font-size="20" font-family="Rotunda-Regular, Rotunda"><tspan x="0" y="0">+</tspan></text>
    </g>
    <g transform="translate(-1186 -3663)">
      <text id="_51" data-name="+" transform="translate(1570 3753)" fill="#fff" font-size="20" font-family="Rotunda-Regular, Rotunda"><tspan x="0" y="0">+</tspan></text>
    </g>
    <g transform="translate(-1154 -3663)">
      <text id="_52" data-name="+" transform="translate(1570 3753)" fill="#fff" font-size="20" font-family="Rotunda-Regular, Rotunda"><tspan x="0" y="0">+</tspan></text>
    </g>
    <g transform="translate(-1122 -3663)">
      <text id="_53" data-name="+" transform="translate(1570 3753)" fill="#fff" font-size="20" font-family="Rotunda-Regular, Rotunda"><tspan x="0" y="0">+</tspan></text>
    </g>
    <g transform="translate(-1090 -3663)">
      <text id="_54" data-name="+" transform="translate(1570 3753)" fill="#fff" font-size="20" font-family="Rotunda-Regular, Rotunda"><tspan x="0" y="0">+</tspan></text>
    </g>
    <g transform="translate(-1058 -3663)">
      <text id="_55" data-name="+" transform="translate(1570 3753)" fill="#fff" font-size="20" font-family="Rotunda-Regular, Rotunda"><tspan x="0" y="0">+</tspan></text>
    </g>
    <g transform="translate(-1026 -3663)">
      <text id="_56" data-name="+" transform="translate(1570 3753)" fill="#fff" font-size="20" font-family="Rotunda-Regular, Rotunda"><tspan x="0" y="0">+</tspan></text>
    </g>
    <g transform="translate(-994 -3663)">
      <text id="_57" data-name="+" transform="translate(1570 3753)" fill="#fff" font-size="20" font-family="Rotunda-Regular, Rotunda"><tspan x="0" y="0">+</tspan></text>
    </g>
    <g transform="translate(-1570 -3625)">
      <text id="_58" data-name="+" transform="translate(1570 3753)" fill="#fff" font-size="20" font-family="Rotunda-Regular, Rotunda"><tspan x="0" y="0">+</tspan></text>
    </g>
    <g transform="translate(-1538 -3625)">
      <text id="_59" data-name="+" transform="translate(1570 3753)" fill="#fff" font-size="20" font-family="Rotunda-Regular, Rotunda"><tspan x="0" y="0">+</tspan></text>
    </g>
    <g transform="translate(-1506 -3625)">
      <text id="_60" data-name="+" transform="translate(1570 3753)" fill="#fff" font-size="20" font-family="Rotunda-Regular, Rotunda"><tspan x="0" y="0">+</tspan></text>
    </g>
    <g transform="translate(-1474 -3625)">
      <text id="_61" data-name="+" transform="translate(1570 3753)" fill="#fff" font-size="20" font-family="Rotunda-Regular, Rotunda"><tspan x="0" y="0">+</tspan></text>
    </g>
    <g transform="translate(-1442 -3625)">
      <text id="_62" data-name="+" transform="translate(1570 3753)" fill="#fff" font-size="20" font-family="Rotunda-Regular, Rotunda"><tspan x="0" y="0">+</tspan></text>
    </g>
    <g transform="translate(-1410 -3625)">
      <text id="_63" data-name="+" transform="translate(1570 3753)" fill="#fff" font-size="20" font-family="Rotunda-Regular, Rotunda"><tspan x="0" y="0">+</tspan></text>
    </g>
    <g transform="translate(-1378 -3625)">
      <text id="_64" data-name="+" transform="translate(1570 3753)" fill="#fff" font-size="20" font-family="Rotunda-Regular, Rotunda"><tspan x="0" y="0">+</tspan></text>
    </g>
    <g transform="translate(-1346 -3625)">
      <text id="_65" data-name="+" transform="translate(1570 3753)" fill="#fff" font-size="20" font-family="Rotunda-Regular, Rotunda"><tspan x="0" y="0">+</tspan></text>
    </g>
    <g transform="translate(-1314 -3625)">
      <text id="_66" data-name="+" transform="translate(1570 3753)" fill="#fff" font-size="20" font-family="Rotunda-Regular, Rotunda"><tspan x="0" y="0">+</tspan></text>
    </g>
    <g transform="translate(-1282 -3625)">
      <text id="_67" data-name="+" transform="translate(1570 3753)" fill="#fff" font-size="20" font-family="Rotunda-Regular, Rotunda"><tspan x="0" y="0">+</tspan></text>
    </g>
    <g transform="translate(-1250 -3625)">
      <text id="_68" data-name="+" transform="translate(1570 3753)" fill="#fff" font-size="20" font-family="Rotunda-Regular, Rotunda"><tspan x="0" y="0">+</tspan></text>
    </g>
    <g transform="translate(-1218 -3625)">
      <text id="_69" data-name="+" transform="translate(1570 3753)" fill="#fff" font-size="20" font-family="Rotunda-Regular, Rotunda"><tspan x="0" y="0">+</tspan></text>
    </g>
    <g transform="translate(-1186 -3625)">
      <text id="_70" data-name="+" transform="translate(1570 3753)" fill="#fff" font-size="20" font-family="Rotunda-Regular, Rotunda"><tspan x="0" y="0">+</tspan></text>
    </g>
    <g transform="translate(-1154 -3625)">
      <text id="_71" data-name="+" transform="translate(1570 3753)" fill="#fff" font-size="20" font-family="Rotunda-Regular, Rotunda"><tspan x="0" y="0">+</tspan></text>
    </g>
    <g transform="translate(-1122 -3625)">
      <text id="_72" data-name="+" transform="translate(1570 3753)" fill="#fff" font-size="20" font-family="Rotunda-Regular, Rotunda"><tspan x="0" y="0">+</tspan></text>
    </g>
    <g transform="translate(-1090 -3625)">
      <text id="_73" data-name="+" transform="translate(1570 3753)" fill="#fff" font-size="20" font-family="Rotunda-Regular, Rotunda"><tspan x="0" y="0">+</tspan></text>
    </g>
    <g transform="translate(-1058 -3625)">
      <text id="_74" data-name="+" transform="translate(1570 3753)" fill="#fff" font-size="20" font-family="Rotunda-Regular, Rotunda"><tspan x="0" y="0">+</tspan></text>
    </g>
    <g transform="translate(-1026 -3625)">
      <text id="_75" data-name="+" transform="translate(1570 3753)" fill="#fff" font-size="20" font-family="Rotunda-Regular, Rotunda"><tspan x="0" y="0">+</tspan></text>
    </g>
    <g transform="translate(-994 -3625)">
      <text id="_76" data-name="+" transform="translate(1570 3753)" fill="#fff" font-size="20" font-family="Rotunda-Regular, Rotunda"><tspan x="0" y="0">+</tspan></text>
    </g>
    <g transform="translate(-1570 -3587)">
      <text id="_77" data-name="+" transform="translate(1570 3753)" fill="#fff" font-size="20" font-family="Rotunda-Regular, Rotunda"><tspan x="0" y="0">+</tspan></text>
    </g>
    <g transform="translate(-1538 -3587)">
      <text id="_78" data-name="+" transform="translate(1570 3753)" fill="#fff" font-size="20" font-family="Rotunda-Regular, Rotunda"><tspan x="0" y="0">+</tspan></text>
    </g>
    <g transform="translate(-1506 -3587)">
      <text id="_79" data-name="+" transform="translate(1570 3753)" fill="#fff" font-size="20" font-family="Rotunda-Regular, Rotunda"><tspan x="0" y="0">+</tspan></text>
    </g>
    <g transform="translate(-1474 -3587)">
      <text id="_80" data-name="+" transform="translate(1570 3753)" fill="#fff" font-size="20" font-family="Rotunda-Regular, Rotunda"><tspan x="0" y="0">+</tspan></text>
    </g>
    <g transform="translate(-1442 -3587)">
      <text id="_81" data-name="+" transform="translate(1570 3753)" fill="#fff" font-size="20" font-family="Rotunda-Regular, Rotunda"><tspan x="0" y="0">+</tspan></text>
    </g>
    <g transform="translate(-1410 -3587)">
      <text id="_82" data-name="+" transform="translate(1570 3753)" fill="#fff" font-size="20" font-family="Rotunda-Regular, Rotunda"><tspan x="0" y="0">+</tspan></text>
    </g>
    <g transform="translate(-1378 -3587)">
      <text id="_83" data-name="+" transform="translate(1570 3753)" fill="#fff" font-size="20" font-family="Rotunda-Regular, Rotunda"><tspan x="0" y="0">+</tspan></text>
    </g>
    <g transform="translate(-1346 -3587)">
      <text id="_84" data-name="+" transform="translate(1570 3753)" fill="#fff" font-size="20" font-family="Rotunda-Regular, Rotunda"><tspan x="0" y="0">+</tspan></text>
    </g>
    <g transform="translate(-1314 -3587)">
      <text id="_85" data-name="+" transform="translate(1570 3753)" fill="#fff" font-size="20" font-family="Rotunda-Regular, Rotunda"><tspan x="0" y="0">+</tspan></text>
    </g>
    <g transform="translate(-1282 -3587)">
      <text id="_86" data-name="+" transform="translate(1570 3753)" fill="#fff" font-size="20" font-family="Rotunda-Regular, Rotunda"><tspan x="0" y="0">+</tspan></text>
    </g>
    <g transform="translate(-1250 -3587)">
      <text id="_87" data-name="+" transform="translate(1570 3753)" fill="#fff" font-size="20" font-family="Rotunda-Regular, Rotunda"><tspan x="0" y="0">+</tspan></text>
    </g>
    <g transform="translate(-1218 -3587)">
      <text id="_88" data-name="+" transform="translate(1570 3753)" fill="#fff" font-size="20" font-family="Rotunda-Regular, Rotunda"><tspan x="0" y="0">+</tspan></text>
    </g>
    <g transform="translate(-1186 -3587)">
      <text id="_89" data-name="+" transform="translate(1570 3753)" fill="#fff" font-size="20" font-family="Rotunda-Regular, Rotunda"><tspan x="0" y="0">+</tspan></text>
    </g>
    <g transform="translate(-1154 -3587)">
      <text id="_90" data-name="+" transform="translate(1570 3753)" fill="#fff" font-size="20" font-family="Rotunda-Regular, Rotunda"><tspan x="0" y="0">+</tspan></text>
    </g>
    <g transform="translate(-1122 -3587)">
      <text id="_91" data-name="+" transform="translate(1570 3753)" fill="#fff" font-size="20" font-family="Rotunda-Regular, Rotunda"><tspan x="0" y="0">+</tspan></text>
    </g>
    <g transform="translate(-1090 -3587)">
      <text id="_92" data-name="+" transform="translate(1570 3753)" fill="#fff" font-size="20" font-family="Rotunda-Regular, Rotunda"><tspan x="0" y="0">+</tspan></text>
    </g>
    <g transform="translate(-1058 -3587)">
      <text id="_93" data-name="+" transform="translate(1570 3753)" fill="#fff" font-size="20" font-family="Rotunda-Regular, Rotunda"><tspan x="0" y="0">+</tspan></text>
    </g>
    <g transform="translate(-1026 -3587)">
      <text id="_94" data-name="+" transform="translate(1570 3753)" fill="#fff" font-size="20" font-family="Rotunda-Regular, Rotunda"><tspan x="0" y="0">+</tspan></text>
    </g>
    <g transform="translate(-994 -3587)">
      <text id="_95" data-name="+" transform="translate(1570 3753)" fill="#fff" font-size="20" font-family="Rotunda-Regular, Rotunda"><tspan x="0" y="0">+</tspan></text>
    </g>
    <g transform="translate(-1570 -3549)">
      <text id="_96" data-name="+" transform="translate(1570 3753)" fill="#fff" font-size="20" font-family="Rotunda-Regular, Rotunda"><tspan x="0" y="0">+</tspan></text>
    </g>
    <g transform="translate(-1538 -3549)">
      <text id="_97" data-name="+" transform="translate(1570 3753)" fill="#fff" font-size="20" font-family="Rotunda-Regular, Rotunda"><tspan x="0" y="0">+</tspan></text>
    </g>
    <g transform="translate(-1506 -3549)">
      <text id="_98" data-name="+" transform="translate(1570 3753)" fill="#fff" font-size="20" font-family="Rotunda-Regular, Rotunda"><tspan x="0" y="0">+</tspan></text>
    </g>
    <g transform="translate(-1474 -3549)">
      <text id="_99" data-name="+" transform="translate(1570 3753)" fill="#fff" font-size="20" font-family="Rotunda-Regular, Rotunda"><tspan x="0" y="0">+</tspan></text>
    </g>
    <g transform="translate(-1442 -3549)">
      <text id="_100" data-name="+" transform="translate(1570 3753)" fill="#fff" font-size="20" font-family="Rotunda-Regular, Rotunda"><tspan x="0" y="0">+</tspan></text>
    </g>
    <g transform="translate(-1410 -3549)">
      <text id="_101" data-name="+" transform="translate(1570 3753)" fill="#fff" font-size="20" font-family="Rotunda-Regular, Rotunda"><tspan x="0" y="0">+</tspan></text>
    </g>
    <g transform="translate(-1378 -3549)">
      <text id="_102" data-name="+" transform="translate(1570 3753)" fill="#fff" font-size="20" font-family="Rotunda-Regular, Rotunda"><tspan x="0" y="0">+</tspan></text>
    </g>
    <g transform="translate(-1346 -3549)">
      <text id="_103" data-name="+" transform="translate(1570 3753)" fill="#fff" font-size="20" font-family="Rotunda-Regular, Rotunda"><tspan x="0" y="0">+</tspan></text>
    </g>
    <g transform="translate(-1314 -3549)">
      <text id="_104" data-name="+" transform="translate(1570 3753)" fill="#fff" font-size="20" font-family="Rotunda-Regular, Rotunda"><tspan x="0" y="0">+</tspan></text>
    </g>
    <g transform="translate(-1282 -3549)">
      <text id="_105" data-name="+" transform="translate(1570 3753)" fill="#fff" font-size="20" font-family="Rotunda-Regular, Rotunda"><tspan x="0" y="0">+</tspan></text>
    </g>
    <g transform="translate(-1250 -3549)">
      <text id="_106" data-name="+" transform="translate(1570 3753)" fill="#fff" font-size="20" font-family="Rotunda-Regular, Rotunda"><tspan x="0" y="0">+</tspan></text>
    </g>
    <g transform="translate(-1218 -3549)">
      <text id="_107" data-name="+" transform="translate(1570 3753)" fill="#fff" font-size="20" font-family="Rotunda-Regular, Rotunda"><tspan x="0" y="0">+</tspan></text>
    </g>
    <g transform="translate(-1186 -3549)">
      <text id="_108" data-name="+" transform="translate(1570 3753)" fill="#fff" font-size="20" font-family="Rotunda-Regular, Rotunda"><tspan x="0" y="0">+</tspan></text>
    </g>
    <g transform="translate(-1154 -3549)">
      <text id="_109" data-name="+" transform="translate(1570 3753)" fill="#fff" font-size="20" font-family="Rotunda-Regular, Rotunda"><tspan x="0" y="0">+</tspan></text>
    </g>
    <g transform="translate(-1122 -3549)">
      <text id="_110" data-name="+" transform="translate(1570 3753)" fill="#fff" font-size="20" font-family="Rotunda-Regular, Rotunda"><tspan x="0" y="0">+</tspan></text>
    </g>
    <g transform="translate(-1090 -3549)">
      <text id="_111" data-name="+" transform="translate(1570 3753)" fill="#fff" font-size="20" font-family="Rotunda-Regular, Rotunda"><tspan x="0" y="0">+</tspan></text>
    </g>
    <g transform="translate(-1058 -3549)">
      <text id="_112" data-name="+" transform="translate(1570 3753)" fill="#fff" font-size="20" font-family="Rotunda-Regular, Rotunda"><tspan x="0" y="0">+</tspan></text>
    </g>
    <g transform="translate(-1026 -3549)">
      <text id="_113" data-name="+" transform="translate(1570 3753)" fill="#fff" font-size="20" font-family="Rotunda-Regular, Rotunda"><tspan x="0" y="0">+</tspan></text>
    </g>
    <g transform="translate(-994 -3549)">
      <text id="_114" data-name="+" transform="translate(1570 3753)" fill="#fff" font-size="20" font-family="Rotunda-Regular, Rotunda"><tspan x="0" y="0">+</tspan></text>
    </g>
    <g transform="translate(-1570 -3511)">
      <text id="_115" data-name="+" transform="translate(1570 3753)" fill="#fff" font-size="20" font-family="Rotunda-Regular, Rotunda"><tspan x="0" y="0">+</tspan></text>
    </g>
    <g transform="translate(-1538 -3511)">
      <text id="_116" data-name="+" transform="translate(1570 3753)" fill="#fff" font-size="20" font-family="Rotunda-Regular, Rotunda"><tspan x="0" y="0">+</tspan></text>
    </g>
    <g transform="translate(-1506 -3511)">
      <text id="_117" data-name="+" transform="translate(1570 3753)" fill="#fff" font-size="20" font-family="Rotunda-Regular, Rotunda"><tspan x="0" y="0">+</tspan></text>
    </g>
    <g transform="translate(-1474 -3511)">
      <text id="_118" data-name="+" transform="translate(1570 3753)" fill="#fff" font-size="20" font-family="Rotunda-Regular, Rotunda"><tspan x="0" y="0">+</tspan></text>
    </g>
    <g transform="translate(-1442 -3511)">
      <text id="_119" data-name="+" transform="translate(1570 3753)" fill="#fff" font-size="20" font-family="Rotunda-Regular, Rotunda"><tspan x="0" y="0">+</tspan></text>
    </g>
    <g transform="translate(-1410 -3511)">
      <text id="_120" data-name="+" transform="translate(1570 3753)" fill="#fff" font-size="20" font-family="Rotunda-Regular, Rotunda"><tspan x="0" y="0">+</tspan></text>
    </g>
    <g transform="translate(-1378 -3511)">
      <text id="_121" data-name="+" transform="translate(1570 3753)" fill="#fff" font-size="20" font-family="Rotunda-Regular, Rotunda"><tspan x="0" y="0">+</tspan></text>
    </g>
    <g transform="translate(-1346 -3511)">
      <text id="_122" data-name="+" transform="translate(1570 3753)" fill="#fff" font-size="20" font-family="Rotunda-Regular, Rotunda"><tspan x="0" y="0">+</tspan></text>
    </g>
    <g transform="translate(-1314 -3511)">
      <text id="_123" data-name="+" transform="translate(1570 3753)" fill="#fff" font-size="20" font-family="Rotunda-Regular, Rotunda"><tspan x="0" y="0">+</tspan></text>
    </g>
    <g transform="translate(-1282 -3511)">
      <text id="_124" data-name="+" transform="translate(1570 3753)" fill="#fff" font-size="20" font-family="Rotunda-Regular, Rotunda"><tspan x="0" y="0">+</tspan></text>
    </g>
    <g transform="translate(-1250 -3511)">
      <text id="_125" data-name="+" transform="translate(1570 3753)" fill="#fff" font-size="20" font-family="Rotunda-Regular, Rotunda"><tspan x="0" y="0">+</tspan></text>
    </g>
    <g transform="translate(-1218 -3511)">
      <text id="_126" data-name="+" transform="translate(1570 3753)" fill="#fff" font-size="20" font-family="Rotunda-Regular, Rotunda"><tspan x="0" y="0">+</tspan></text>
    </g>
    <g transform="translate(-1186 -3511)">
      <text id="_127" data-name="+" transform="translate(1570 3753)" fill="#fff" font-size="20" font-family="Rotunda-Regular, Rotunda"><tspan x="0" y="0">+</tspan></text>
    </g>
    <g transform="translate(-1154 -3511)">
      <text id="_128" data-name="+" transform="translate(1570 3753)" fill="#fff" font-size="20" font-family="Rotunda-Regular, Rotunda"><tspan x="0" y="0">+</tspan></text>
    </g>
    <g transform="translate(-1122 -3511)">
      <text id="_129" data-name="+" transform="translate(1570 3753)" fill="#fff" font-size="20" font-family="Rotunda-Regular, Rotunda"><tspan x="0" y="0">+</tspan></text>
    </g>
    <g transform="translate(-1090 -3511)">
      <text id="_130" data-name="+" transform="translate(1570 3753)" fill="#fff" font-size="20" font-family="Rotunda-Regular, Rotunda"><tspan x="0" y="0">+</tspan></text>
    </g>
    <g transform="translate(-1058 -3511)">
      <text id="_131" data-name="+" transform="translate(1570 3753)" fill="#fff" font-size="20" font-family="Rotunda-Regular, Rotunda"><tspan x="0" y="0">+</tspan></text>
    </g>
    <g transform="translate(-1026 -3511)">
      <text id="_132" data-name="+" transform="translate(1570 3753)" fill="#fff" font-size="20" font-family="Rotunda-Regular, Rotunda"><tspan x="0" y="0">+</tspan></text>
    </g>
    <g transform="translate(-994 -3511)">
      <text id="_133" data-name="+" transform="translate(1570 3753)" fill="#fff" font-size="20" font-family="Rotunda-Regular, Rotunda"><tspan x="0" y="0">+</tspan></text>
    </g>
    <g transform="translate(-1570 -3473)">
      <text id="_134" data-name="+" transform="translate(1570 3753)" fill="#fff" font-size="20" font-family="Rotunda-Regular, Rotunda"><tspan x="0" y="0">+</tspan></text>
    </g>
    <g transform="translate(-1538 -3473)">
      <text id="_135" data-name="+" transform="translate(1570 3753)" fill="#fff" font-size="20" font-family="Rotunda-Regular, Rotunda"><tspan x="0" y="0">+</tspan></text>
    </g>
    <g transform="translate(-1506 -3473)">
      <text id="_136" data-name="+" transform="translate(1570 3753)" fill="#fff" font-size="20" font-family="Rotunda-Regular, Rotunda"><tspan x="0" y="0">+</tspan></text>
    </g>
    <g transform="translate(-1474 -3473)">
      <text id="_137" data-name="+" transform="translate(1570 3753)" fill="#fff" font-size="20" font-family="Rotunda-Regular, Rotunda"><tspan x="0" y="0">+</tspan></text>
    </g>
    <g transform="translate(-1442 -3473)">
      <text id="_138" data-name="+" transform="translate(1570 3753)" fill="#fff" font-size="20" font-family="Rotunda-Regular, Rotunda"><tspan x="0" y="0">+</tspan></text>
    </g>
    <g transform="translate(-1410 -3473)">
      <text id="_139" data-name="+" transform="translate(1570 3753)" fill="#fff" font-size="20" font-family="Rotunda-Regular, Rotunda"><tspan x="0" y="0">+</tspan></text>
    </g>
    <g transform="translate(-1378 -3473)">
      <text id="_140" data-name="+" transform="translate(1570 3753)" fill="#fff" font-size="20" font-family="Rotunda-Regular, Rotunda"><tspan x="0" y="0">+</tspan></text>
    </g>
    <g transform="translate(-1346 -3473)">
      <text id="_141" data-name="+" transform="translate(1570 3753)" fill="#fff" font-size="20" font-family="Rotunda-Regular, Rotunda"><tspan x="0" y="0">+</tspan></text>
    </g>
    <g transform="translate(-1314 -3473)">
      <text id="_142" data-name="+" transform="translate(1570 3753)" fill="#fff" font-size="20" font-family="Rotunda-Regular, Rotunda"><tspan x="0" y="0">+</tspan></text>
    </g>
    <g transform="translate(-1282 -3473)">
      <text id="_143" data-name="+" transform="translate(1570 3753)" fill="#fff" font-size="20" font-family="Rotunda-Regular, Rotunda"><tspan x="0" y="0">+</tspan></text>
    </g>
    <g transform="translate(-1250 -3473)">
      <text id="_144" data-name="+" transform="translate(1570 3753)" fill="#fff" font-size="20" font-family="Rotunda-Regular, Rotunda"><tspan x="0" y="0">+</tspan></text>
    </g>
    <g transform="translate(-1218 -3473)">
      <text id="_145" data-name="+" transform="translate(1570 3753)" fill="#fff" font-size="20" font-family="Rotunda-Regular, Rotunda"><tspan x="0" y="0">+</tspan></text>
    </g>
    <g transform="translate(-1186 -3473)">
      <text id="_146" data-name="+" transform="translate(1570 3753)" fill="#fff" font-size="20" font-family="Rotunda-Regular, Rotunda"><tspan x="0" y="0">+</tspan></text>
    </g>
    <g transform="translate(-1154 -3473)">
      <text id="_147" data-name="+" transform="translate(1570 3753)" fill="#fff" font-size="20" font-family="Rotunda-Regular, Rotunda"><tspan x="0" y="0">+</tspan></text>
    </g>
    <g transform="translate(-1122 -3473)">
      <text id="_148" data-name="+" transform="translate(1570 3753)" fill="#fff" font-size="20" font-family="Rotunda-Regular, Rotunda"><tspan x="0" y="0">+</tspan></text>
    </g>
    <g transform="translate(-1090 -3473)">
      <text id="_149" data-name="+" transform="translate(1570 3753)" fill="#fff" font-size="20" font-family="Rotunda-Regular, Rotunda"><tspan x="0" y="0">+</tspan></text>
    </g>
    <g transform="translate(-1058 -3473)">
      <text id="_150" data-name="+" transform="translate(1570 3753)" fill="#fff" font-size="20" font-family="Rotunda-Regular, Rotunda"><tspan x="0" y="0">+</tspan></text>
    </g>
    <g transform="translate(-1026 -3473)">
      <text id="_151" data-name="+" transform="translate(1570 3753)" fill="#fff" font-size="20" font-family="Rotunda-Regular, Rotunda"><tspan x="0" y="0">+</tspan></text>
    </g>
    <g transform="translate(-994 -3473)">
      <text id="_152" data-name="+" transform="translate(1570 3753)" fill="#fff" font-size="20" font-family="Rotunda-Regular, Rotunda"><tspan x="0" y="0">+</tspan></text>
    </g>
    <g transform="translate(-1570 -3435)">
      <text id="_153" data-name="+" transform="translate(1570 3753)" fill="#fff" font-size="20" font-family="Rotunda-Regular, Rotunda"><tspan x="0" y="0">+</tspan></text>
    </g>
    <g transform="translate(-1538 -3435)">
      <text id="_154" data-name="+" transform="translate(1570 3753)" fill="#fff" font-size="20" font-family="Rotunda-Regular, Rotunda"><tspan x="0" y="0">+</tspan></text>
    </g>
    <g transform="translate(-1506 -3435)">
      <text id="_155" data-name="+" transform="translate(1570 3753)" fill="#fff" font-size="20" font-family="Rotunda-Regular, Rotunda"><tspan x="0" y="0">+</tspan></text>
    </g>
    <g transform="translate(-1474 -3435)">
      <text id="_156" data-name="+" transform="translate(1570 3753)" fill="#fff" font-size="20" font-family="Rotunda-Regular, Rotunda"><tspan x="0" y="0">+</tspan></text>
    </g>
    <g transform="translate(-1442 -3435)">
      <text id="_157" data-name="+" transform="translate(1570 3753)" fill="#fff" font-size="20" font-family="Rotunda-Regular, Rotunda"><tspan x="0" y="0">+</tspan></text>
    </g>
    <g transform="translate(-1410 -3435)">
      <text id="_158" data-name="+" transform="translate(1570 3753)" fill="#fff" font-size="20" font-family="Rotunda-Regular, Rotunda"><tspan x="0" y="0">+</tspan></text>
    </g>
    <g transform="translate(-1378 -3435)">
      <text id="_159" data-name="+" transform="translate(1570 3753)" fill="#fff" font-size="20" font-family="Rotunda-Regular, Rotunda"><tspan x="0" y="0">+</tspan></text>
    </g>
    <g transform="translate(-1346 -3435)">
      <text id="_160" data-name="+" transform="translate(1570 3753)" fill="#fff" font-size="20" font-family="Rotunda-Regular, Rotunda"><tspan x="0" y="0">+</tspan></text>
    </g>
    <g transform="translate(-1314 -3435)">
      <text id="_161" data-name="+" transform="translate(1570 3753)" fill="#fff" font-size="20" font-family="Rotunda-Regular, Rotunda"><tspan x="0" y="0">+</tspan></text>
    </g>
    <g transform="translate(-1282 -3435)">
      <text id="_162" data-name="+" transform="translate(1570 3753)" fill="#fff" font-size="20" font-family="Rotunda-Regular, Rotunda"><tspan x="0" y="0">+</tspan></text>
    </g>
    <g transform="translate(-1250 -3435)">
      <text id="_163" data-name="+" transform="translate(1570 3753)" fill="#fff" font-size="20" font-family="Rotunda-Regular, Rotunda"><tspan x="0" y="0">+</tspan></text>
    </g>
    <g transform="translate(-1218 -3435)">
      <text id="_164" data-name="+" transform="translate(1570 3753)" fill="#fff" font-size="20" font-family="Rotunda-Regular, Rotunda"><tspan x="0" y="0">+</tspan></text>
    </g>
    <g transform="translate(-1186 -3435)">
      <text id="_165" data-name="+" transform="translate(1570 3753)" fill="#fff" font-size="20" font-family="Rotunda-Regular, Rotunda"><tspan x="0" y="0">+</tspan></text>
    </g>
    <g transform="translate(-1154 -3435)">
      <text id="_166" data-name="+" transform="translate(1570 3753)" fill="#fff" font-size="20" font-family="Rotunda-Regular, Rotunda"><tspan x="0" y="0">+</tspan></text>
    </g>
    <g transform="translate(-1122 -3435)">
      <text id="_167" data-name="+" transform="translate(1570 3753)" fill="#fff" font-size="20" font-family="Rotunda-Regular, Rotunda"><tspan x="0" y="0">+</tspan></text>
    </g>
    <g transform="translate(-1090 -3435)">
      <text id="_168" data-name="+" transform="translate(1570 3753)" fill="#fff" font-size="20" font-family="Rotunda-Regular, Rotunda"><tspan x="0" y="0">+</tspan></text>
    </g>
    <g transform="translate(-1058 -3435)">
      <text id="_169" data-name="+" transform="translate(1570 3753)" fill="#fff" font-size="20" font-family="Rotunda-Regular, Rotunda"><tspan x="0" y="0">+</tspan></text>
    </g>
    <g transform="translate(-1026 -3435)">
      <text id="_170" data-name="+" transform="translate(1570 3753)" fill="#fff" font-size="20" font-family="Rotunda-Regular, Rotunda"><tspan x="0" y="0">+</tspan></text>
    </g>
    <g transform="translate(-994 -3435)">
      <text id="_171" data-name="+" transform="translate(1570 3753)" fill="#fff" font-size="20" font-family="Rotunda-Regular, Rotunda"><tspan x="0" y="0">+</tspan></text>
    </g>
    <g transform="translate(-1570 -3397)">
      <text id="_172" data-name="+" transform="translate(1570 3753)" fill="#fff" font-size="20" font-family="Rotunda-Regular, Rotunda"><tspan x="0" y="0">+</tspan></text>
    </g>
    <g transform="translate(-1538 -3397)">
      <text id="_173" data-name="+" transform="translate(1570 3753)" fill="#fff" font-size="20" font-family="Rotunda-Regular, Rotunda"><tspan x="0" y="0">+</tspan></text>
    </g>
    <g transform="translate(-1506 -3397)">
      <text id="_174" data-name="+" transform="translate(1570 3753)" fill="#fff" font-size="20" font-family="Rotunda-Regular, Rotunda"><tspan x="0" y="0">+</tspan></text>
    </g>
    <g transform="translate(-1474 -3397)">
      <text id="_175" data-name="+" transform="translate(1570 3753)" fill="#fff" font-size="20" font-family="Rotunda-Regular, Rotunda"><tspan x="0" y="0">+</tspan></text>
    </g>
    <g transform="translate(-1442 -3397)">
      <text id="_176" data-name="+" transform="translate(1570 3753)" fill="#fff" font-size="20" font-family="Rotunda-Regular, Rotunda"><tspan x="0" y="0">+</tspan></text>
    </g>
    <g transform="translate(-1410 -3397)">
      <text id="_177" data-name="+" transform="translate(1570 3753)" fill="#fff" font-size="20" font-family="Rotunda-Regular, Rotunda"><tspan x="0" y="0">+</tspan></text>
    </g>
    <g transform="translate(-1378 -3397)">
      <text id="_178" data-name="+" transform="translate(1570 3753)" fill="#fff" font-size="20" font-family="Rotunda-Regular, Rotunda"><tspan x="0" y="0">+</tspan></text>
    </g>
    <g transform="translate(-1346 -3397)">
      <text id="_179" data-name="+" transform="translate(1570 3753)" fill="#fff" font-size="20" font-family="Rotunda-Regular, Rotunda"><tspan x="0" y="0">+</tspan></text>
    </g>
    <g transform="translate(-1314 -3397)">
      <text id="_180" data-name="+" transform="translate(1570 3753)" fill="#fff" font-size="20" font-family="Rotunda-Regular, Rotunda"><tspan x="0" y="0">+</tspan></text>
    </g>
    <g transform="translate(-1282 -3397)">
      <text id="_181" data-name="+" transform="translate(1570 3753)" fill="#fff" font-size="20" font-family="Rotunda-Regular, Rotunda"><tspan x="0" y="0">+</tspan></text>
    </g>
    <g transform="translate(-1250 -3397)">
      <text id="_182" data-name="+" transform="translate(1570 3753)" fill="#fff" font-size="20" font-family="Rotunda-Regular, Rotunda"><tspan x="0" y="0">+</tspan></text>
    </g>
    <g transform="translate(-1218 -3397)">
      <text id="_183" data-name="+" transform="translate(1570 3753)" fill="#fff" font-size="20" font-family="Rotunda-Regular, Rotunda"><tspan x="0" y="0">+</tspan></text>
    </g>
    <g transform="translate(-1186 -3397)">
      <text id="_184" data-name="+" transform="translate(1570 3753)" fill="#fff" font-size="20" font-family="Rotunda-Regular, Rotunda"><tspan x="0" y="0">+</tspan></text>
    </g>
    <g transform="translate(-1154 -3397)">
      <text id="_185" data-name="+" transform="translate(1570 3753)" fill="#fff" font-size="20" font-family="Rotunda-Regular, Rotunda"><tspan x="0" y="0">+</tspan></text>
    </g>
    <g transform="translate(-1122 -3397)">
      <text id="_186" data-name="+" transform="translate(1570 3753)" fill="#fff" font-size="20" font-family="Rotunda-Regular, Rotunda"><tspan x="0" y="0">+</tspan></text>
    </g>
    <g transform="translate(-1090 -3397)">
      <text id="_187" data-name="+" transform="translate(1570 3753)" fill="#fff" font-size="20" font-family="Rotunda-Regular, Rotunda"><tspan x="0" y="0">+</tspan></text>
    </g>
    <g transform="translate(-1058 -3397)">
      <text id="_188" data-name="+" transform="translate(1570 3753)" fill="#fff" font-size="20" font-family="Rotunda-Regular, Rotunda"><tspan x="0" y="0">+</tspan></text>
    </g>
    <g transform="translate(-1026 -3397)">
      <text id="_189" data-name="+" transform="translate(1570 3753)" fill="#fff" font-size="20" font-family="Rotunda-Regular, Rotunda"><tspan x="0" y="0">+</tspan></text>
    </g>
    <g transform="translate(-994 -3397)">
      <text id="_190" data-name="+" transform="translate(1570 3753)" fill="#fff" font-size="20" font-family="Rotunda-Regular, Rotunda"><tspan x="0" y="0">+</tspan></text>
    </g>
    <g transform="translate(-1570 -3359)">
      <text id="_191" data-name="+" transform="translate(1570 3753)" fill="#fff" font-size="20" font-family="Rotunda-Regular, Rotunda"><tspan x="0" y="0">+</tspan></text>
    </g>
    <g transform="translate(-1538 -3359)">
      <text id="_192" data-name="+" transform="translate(1570 3753)" fill="#fff" font-size="20" font-family="Rotunda-Regular, Rotunda"><tspan x="0" y="0">+</tspan></text>
    </g>
    <g transform="translate(-1506 -3359)">
      <text id="_193" data-name="+" transform="translate(1570 3753)" fill="#fff" font-size="20" font-family="Rotunda-Regular, Rotunda"><tspan x="0" y="0">+</tspan></text>
    </g>
    <g transform="translate(-1474 -3359)">
      <text id="_194" data-name="+" transform="translate(1570 3753)" fill="#fff" font-size="20" font-family="Rotunda-Regular, Rotunda"><tspan x="0" y="0">+</tspan></text>
    </g>
    <g transform="translate(-1442 -3359)">
      <text id="_195" data-name="+" transform="translate(1570 3753)" fill="#fff" font-size="20" font-family="Rotunda-Regular, Rotunda"><tspan x="0" y="0">+</tspan></text>
    </g>
    <g transform="translate(-1410 -3359)">
      <text id="_196" data-name="+" transform="translate(1570 3753)" fill="#fff" font-size="20" font-family="Rotunda-Regular, Rotunda"><tspan x="0" y="0">+</tspan></text>
    </g>
    <g transform="translate(-1378 -3359)">
      <text id="_197" data-name="+" transform="translate(1570 3753)" fill="#fff" font-size="20" font-family="Rotunda-Regular, Rotunda"><tspan x="0" y="0">+</tspan></text>
    </g>
    <g transform="translate(-1346 -3359)">
      <text id="_198" data-name="+" transform="translate(1570 3753)" fill="#fff" font-size="20" font-family="Rotunda-Regular, Rotunda"><tspan x="0" y="0">+</tspan></text>
    </g>
    <g transform="translate(-1314 -3359)">
      <text id="_199" data-name="+" transform="translate(1570 3753)" fill="#fff" font-size="20" font-family="Rotunda-Regular, Rotunda"><tspan x="0" y="0">+</tspan></text>
    </g>
    <g transform="translate(-1282 -3359)">
      <text id="_200" data-name="+" transform="translate(1570 3753)" fill="#fff" font-size="20" font-family="Rotunda-Regular, Rotunda"><tspan x="0" y="0">+</tspan></text>
    </g>
    <g transform="translate(-1250 -3359)">
      <text id="_201" data-name="+" transform="translate(1570 3753)" fill="#fff" font-size="20" font-family="Rotunda-Regular, Rotunda"><tspan x="0" y="0">+</tspan></text>
    </g>
    <g transform="translate(-1218 -3359)">
      <text id="_202" data-name="+" transform="translate(1570 3753)" fill="#fff" font-size="20" font-family="Rotunda-Regular, Rotunda"><tspan x="0" y="0">+</tspan></text>
    </g>
    <g transform="translate(-1186 -3359)">
      <text id="_203" data-name="+" transform="translate(1570 3753)" fill="#fff" font-size="20" font-family="Rotunda-Regular, Rotunda"><tspan x="0" y="0">+</tspan></text>
    </g>
    <g transform="translate(-1154 -3359)">
      <text id="_204" data-name="+" transform="translate(1570 3753)" fill="#fff" font-size="20" font-family="Rotunda-Regular, Rotunda"><tspan x="0" y="0">+</tspan></text>
    </g>
    <g transform="translate(-1122 -3359)">
      <text id="_205" data-name="+" transform="translate(1570 3753)" fill="#fff" font-size="20" font-family="Rotunda-Regular, Rotunda"><tspan x="0" y="0">+</tspan></text>
    </g>
    <g transform="translate(-1090 -3359)">
      <text id="_206" data-name="+" transform="translate(1570 3753)" fill="#fff" font-size="20" font-family="Rotunda-Regular, Rotunda"><tspan x="0" y="0">+</tspan></text>
    </g>
    <g transform="translate(-1058 -3359)">
      <text id="_207" data-name="+" transform="translate(1570 3753)" fill="#fff" font-size="20" font-family="Rotunda-Regular, Rotunda"><tspan x="0" y="0">+</tspan></text>
    </g>
    <g transform="translate(-1026 -3359)">
      <text id="_208" data-name="+" transform="translate(1570 3753)" fill="#fff" font-size="20" font-family="Rotunda-Regular, Rotunda"><tspan x="0" y="0">+</tspan></text>
    </g>
    <g transform="translate(-994 -3359)">
      <text id="_209" data-name="+" transform="translate(1570 3753)" fill="#fff" font-size="20" font-family="Rotunda-Regular, Rotunda"><tspan x="0" y="0">+</tspan></text>
    </g>
  </g>
</svg>
